{
	"asset":{
		"generator":"Khronos glTF Blender I/O v5.0.21",
		"version":"2.0"
	},
	"scene":0,
	"scenes":[
		{
			"name":"Scene",
			"nodes":[
				0,
				1,
				2
			]
		}
	],
	"nodes":[
		{
			"mesh":0,
			"name":"Cockpit"
		},
		{
			"mesh":1,
			"name":"Wing"
		},
		{
			"mesh":2,
			"name":"Cube"
		}
	],
	"materials":[
		{
			"doubleSided":true,
			"name":"Material.002",
			"pbrMetallicRoughness":{
				"baseColorFactor":[
					0.17012430727481842,
					0.17012430727481842,
					0.17012430727481842,
					1
				],
				"metallicFactor":0,
				"roughnessFactor":0.5
			}
		},
		{
			"doubleSided":true,
			"name":"Material.001",
			"pbrMetallicRoughness":{
				"baseColorFactor":[
					0.22593525052070618,
					0.22593525052070618,
					0.22593525052070618,
					1
				],
				"metallicFactor":0,
				"roughnessFactor":0.5
			}
		}
	],
	"meshes":[
		{
			"name":"Cube.001",
			"primitives":[
				{
					"attributes":{
						"POSITION":0,
						"NORMAL":1,
						"TEXCOORD_0":2
					},
					"indices":3,
					"material":0
				}
			]
		},
		{
			"name":"Cube",
			"primitives":[
				{
					"attributes":{
						"POSITION":4,
						"NORMAL":5,
						"TEXCOORD_0":6
					},
					"indices":7,
					"material":1
				}
			]
		},
		{
			"name":"Cube.002",
			"primitives":[
				{
					"attributes":{
						"POSITION":8,
						"NORMAL":9,
						"TEXCOORD_0":10
					},
					"indices":11
				}
			]
		}
	],
	"accessors":[
		{
			"bufferView":0,
			"componentType":5126,
			"count":97,
			"max":[
				1.186262607574463,
				0.2807847261428833,
				1
			],
			"min":[
				-1.186262607574463,
				-1,
				-2.4796080589294434
			],
			"type":"VEC3"
		},
		{
			"bufferView":1,
			"componentType":5126,
			"count":97,
			"type":"VEC3"
		},
		{
			"bufferView":2,
			"componentType":5126,
			"count":97,
			"type":"VEC2"
		},
		{
			"bufferView":3,
			"componentType":5123,
			"count":192,
			"type":"SCALAR"
		},
		{
			"bufferView":4,
			"componentType":5126,
			"count":89,
			"max":[
				2.594466209411621,
				-0.318622350692749,
				0.8562034964561462
			],
			"min":[
				-2.594466209411621,
				-1,
				-1
			],
			"type":"VEC3"
		},
		{
			"bufferView":5,
			"componentType":5126,
			"count":89,
			"type":"VEC3"
		},
		{
			"bufferView":6,
			"componentType":5126,
			"count":89,
			"type":"VEC2"
		},
		{
			"bufferView":7,
			"componentType":5123,
			"count":168,
			"type":"SCALAR"
		},
		{
			"bufferView":8,
			"componentType":5126,
			"count":48,
			"max":[
				1.6406514644622803,
				-0.6093015670776367,
				1.2181841135025024
			],
			"min":[
				-1.6406514644622803,
				-1.1483509540557861,
				0.05057179927825928
			],
			"type":"VEC3"
		},
		{
			"bufferView":9,
			"componentType":5126,
			"count":48,
			"type":"VEC3"
		},
		{
			"bufferView":10,
			"componentType":5126,
			"count":48,
			"type":"VEC2"
		},
		{
			"bufferView":11,
			"componentType":5123,
			"count":72,
			"type":"SCALAR"
		}
	],
	"bufferViews":[
		{
			"buffer":0,
			"byteLength":1164,
			"byteOffset":0,
			"target":34962
		},
		{
			"buffer":0,
			"byteLength":1164,
			"byteOffset":1164,
			"target":34962
		},
		{
			"buffer":0,
			"byteLength":776,
			"byteOffset":2328,
			"target":34962
		},
		{
			"buffer":0,
			"byteLength":384,
			"byteOffset":3104,
			"target":34963
		},
		{
			"buffer":0,
			"byteLength":1068,
			"byteOffset":3488,
			"target":34962
		},
		{
			"buffer":0,
			"byteLength":1068,
			"byteOffset":4556,
			"target":34962
		},
		{
			"buffer":0,
			"byteLength":712,
			"byteOffset":5624,
			"target":34962
		},
		{
			"buffer":0,
			"byteLength":336,
			"byteOffset":6336,
			"target":34963
		},
		{
			"buffer":0,
			"byteLength":576,
			"byteOffset":6672,
			"target":34962
		},
		{
			"buffer":0,
			"byteLength":576,
			"byteOffset":7248,
			"target":34962
		},
		{
			"buffer":0,
			"byteLength":384,
			"byteOffset":7824,
			"target":34962
		},
		{
			"buffer":0,
			"byteLength":144,
			"byteOffset":8208,
			"target":34963
		}
	],
	"buffers":[
		{
			"byteLength":8352,
			"uri":"spaceship01.bin"
		}
	]
}
